<?xml version="1.0" standalone="no"?>
<!DOCTYPE svg PUBLIC "-//W3C//DTD SVG 20010904//EN"
 "http://www.w3.org/TR/2001/REC-SVG-20010904/DTD/svg10.dtd">
<svg version="1.0" xmlns="http://www.w3.org/2000/svg"
 width="500.000000pt" height="500.000000pt" viewBox="0 0 500.000000 500.000000"
 preserveAspectRatio="xMidYMid meet">

<g transform="translate(0.000000,500.000000) scale(0.100000,-0.100000)"
fill="#000000" stroke="none">
<path d="M1730 4009 c-122 -26 -288 -93 -380 -154 -284 -189 -443 -508 -427
-855 11 -241 75 -416 216 -593 137 -172 331 -287 585 -344 101 -23 128 -24
294 -21 l182 3 0 -437 0 -438 375 0 375 0 0 223 0 224 183 6 c268 9 408 39
564 121 189 100 323 271 367 473 31 139 15 345 -37 468 -104 248 -322 403
-647 460 -68 12 -192 15 -632 15 l-548 0 0 -239 0 -239 -47 -19 c-35 -13 -75
-18 -143 -18 -83 0 -102 3 -155 28 -144 67 -212 200 -203 392 11 216 131 349
326 362 149 10 253 -35 365 -159 l64 -71 232 208 c204 182 230 209 219 223
-83 109 -180 197 -284 259 -84 51 -230 104 -342 124 -145 26 -371 25 -502 -2z
m1523 -1478 c41 -25 61 -57 70 -112 13 -87 -31 -159 -108 -178 -24 -6 -94 -11
-154 -11 l-111 0 0 166 0 166 133 -4 c117 -3 137 -6 170 -27z"/>
</g>
</svg>
